HIERARCHY
ROOT Hips
{
	OFFSET 0.000000 0.000000 0.000000
	CHANNELS 6 Xposition Yposition Zposition Zrotation Yrotation Xrotation 
	JOINT LHipJoint
	{
		OFFSET 0.000000 0.000000 0.000000
		CHANNELS 3 Zrotation Yrotation Xrotation
		JOINT LeftUpLeg
		{
			OFFSET 1.363060 -1.794630 0.839290
			CHANNELS 3 Zrotation Yrotation Xrotation
			JOINT LeftLeg
			{
				OFFSET 2.448110 -6.726130 0.000000
				CHANNELS 3 Zrotation Yrotation Xrotation
				JOINT LeftFoot
				{
					OFFSET 2.562200 -7.039590 0.000000
					CHANNELS 3 Zrotation Yrotation Xrotation
					JOINT LeftToeBase
					{
						OFFSET 0.157640 -0.433110 2.322550
						CHANNELS 3 Zrotation Yrotation Xrotation
						End Site
						{
							OFFSET 0.000000 0.000000 0.000000
						}
					}
				}
			}
		}
	}
	JOINT RHipJoint
	{
		OFFSET 0.000000 0.000000 0.000000
		CHANNELS 3 Zrotation Yrotation Xrotation
		JOINT RightUpLeg
		{
			OFFSET -1.305520 -1.794630 0.839290
			CHANNELS 3 Zrotation Yrotation Xrotation
			JOINT RightLeg
			{
				OFFSET -2.542530 -6.985550 0.000000
				CHANNELS 3 Zrotation Yrotation Xrotation
				JOINT RightFoot
				{
					OFFSET -2.568260 -7.056230 0.000000
					CHANNELS 3 Zrotation Yrotation Xrotation
					JOINT RightToeBase
					{
						OFFSET -0.164730 -0.452590 2.363150
						CHANNELS 3 Zrotation Yrotation Xrotation
						End Site
						{
							OFFSET 0.000000 0.000000 0.000000
						}
					}
				}
			}
		}
	}
	JOINT LowerBack
	{
		OFFSET 0.000000 0.000000 0.000000
		CHANNELS 3 Zrotation Yrotation Xrotation
		JOINT Spine
		{
			OFFSET 0.028270 2.035590 -0.193380
			CHANNELS 3 Zrotation Yrotation Xrotation
			JOINT Spine1
			{
				OFFSET 0.056720 2.048850 -0.042750
				CHANNELS 3 Zrotation Yrotation Xrotation
				JOINT Neck
				{
					OFFSET 0.000000 0.000000 0.000000
					CHANNELS 3 Zrotation Yrotation Xrotation
					JOINT Neck1
					{
						OFFSET -0.054170 1.746240 0.172020
						CHANNELS 3 Zrotation Yrotation Xrotation
						JOINT Head
						{
							OFFSET 0.104070 1.761360 -0.123970
							CHANNELS 3 Zrotation Yrotation Xrotation
							End Site
							{
								OFFSET 0.000000 0.000000 0.000000
							}
						}
					}
				}
				JOINT LeftShoulder
				{
					OFFSET 0.000000 0.000000 0.000000
					CHANNELS 3 Zrotation Yrotation Xrotation
					JOINT LeftArm
					{
						OFFSET 3.362410 1.200890 -0.311210
						CHANNELS 3 Zrotation Yrotation Xrotation
						JOINT LeftForeArm
						{
							OFFSET 4.983000 -0.000000 -0.000000
							CHANNELS 3 Zrotation Yrotation Xrotation
							JOINT LeftHand
							{
								OFFSET 3.483560 -0.000000 -0.000000
								CHANNELS 3 Zrotation Yrotation Xrotation
								JOINT LeftFingerBase
								{
									OFFSET 0.000000 0.000000 0.000000
									CHANNELS 3 Zrotation Yrotation Xrotation
									JOINT LeftHandIndex1
									{
										OFFSET 0.715260 -0.000000 -0.000000
										CHANNELS 3 Zrotation Yrotation Xrotation
										End Site
										{
											OFFSET 0.000000 0.000000 0.000000
										}
									}
								}
								JOINT LThumb
								{
									OFFSET 0.000000 0.000000 0.000000
									CHANNELS 3 Zrotation Yrotation Xrotation
									End Site
									{
										OFFSET 0.000000 0.000000 0.000000
									}
								}
							}
						}
					}
				}
				JOINT RightShoulder
				{
					OFFSET 0.000000 0.000000 0.000000
					CHANNELS 3 Zrotation Yrotation Xrotation
					JOINT RightArm
					{
						OFFSET -3.136600 1.374050 -0.404650
						CHANNELS 3 Zrotation Yrotation Xrotation
						JOINT RightForeArm
						{
							OFFSET -5.241900 -0.000000 -0.000000
							CHANNELS 3 Zrotation Yrotation Xrotation
							JOINT RightHand
							{
								OFFSET -3.444170 -0.000000 -0.000000
								CHANNELS 3 Zrotation Yrotation Xrotation
								JOINT RightFingerBase
								{
									OFFSET 0.000000 0.000000 0.000000
									CHANNELS 3 Zrotation Yrotation Xrotation
									JOINT RightHandIndex1
									{
										OFFSET -0.622530 -0.000000 -0.000000
										CHANNELS 3 Zrotation Yrotation Xrotation
										End Site
										{
											OFFSET 0.000000 0.000000 0.000000
										}
									}
								}
								JOINT RThumb
								{
									OFFSET 0.000000 0.000000 0.000000
									CHANNELS 3 Zrotation Yrotation Xrotation
									End Site
									{
										OFFSET 0.000000 0.000000 0.000000
									}
								}
							}
						}
					}
				}
			}
		}
	}
}
MOTION
Frames: 12
Frame Time: 0.008333
10.205244 18.083061 -45.626109 -0.037888 5.320351 5.934055 -0.576772 1.364392 0.924386 -14.760071 -12.781232 -14.065515 -1.709977 9.529367 26.256816 -0.937440 5.951539 0.882054 2.043600 -8.956200 -25.658500 -2.996981 -1.879045 0.137740 25.751157 1.548562 -16.815809 1.094633 -11.082442 32.139440 6.922039 -29.536373 -30.379078 -4.208900 -12.433400 37.282800 2.586720 1.764875 7.935774 3.140883 2.631067 2.080933 -4.413911 1.240417 -12.778374 -9.899319 -5.432829 -10.001689 12.794656 -7.889412 1.700061 2.615000 -4.143300 1.140700 -1.950129 -11.188673 1.660726 -88.527736 9.080539 8.118539 24.541557 -24.774411 -6.378257 1.462696 1.070149 9.421121 10.350146 -31.126865 -4.934500 -7.125000 0.000000 0.000000 -12.789600 -2.214500 13.612800 0.552401 10.077023 2.458145 86.986580 -10.375813 17.263813 -17.233082 19.359165 -4.526193 1.306171 0.008269 33.356396 4.646516 -54.849310 -2.945500 7.125000 0.000000 0.000000 81.953000 -70.738700 -61.265200 
10.245940 18.080466 -45.636607 -0.047141 5.720736 5.765950 -0.594367 1.390719 0.968233 -14.878811 -12.885524 -13.921487 -1.726256 9.483744 26.171347 -0.786899 5.587104 1.136048 1.883200 -8.618400 -24.608800 -2.988042 -1.901406 0.178040 25.666093 1.337600 -16.811499 1.057235 -11.107570 32.278210 6.861478 -29.436831 -30.496365 -4.295600 -12.543700 37.683500 2.655523 1.836119 7.503825 3.238524 2.700318 2.699363 -4.428245 1.290402 -12.383215 -9.960408 -5.676464 -10.107266 12.805285 -8.188879 1.602061 2.621200 -4.297100 1.164100 -1.950916 -11.243146 1.628812 -88.452226 8.695953 9.144918 24.421551 -24.617848 -6.332689 1.502460 1.049554 9.707800 9.613501 -31.158205 -4.513400 -7.125000 0.000000 0.000000 -13.219300 -2.128400 14.075700 0.519003 10.100704 2.428896 86.972534 -9.887664 17.865311 -17.459330 19.655926 -4.635754 1.292685 0.035879 32.589913 4.600919 -55.630959 -2.948900 7.125000 0.000000 0.000000 84.152100 -70.867900 -63.637800 
10.275075 18.081528 -45.653947 -0.043597 6.445321 5.556632 -0.604201 1.420271 0.987076 -14.994579 -13.085847 -13.713305 -1.750339 9.427267 26.050980 -0.702478 5.370861 1.468108 1.948500 -8.758100 -25.041400 -2.963872 -1.926857 0.212522 25.622189 1.046271 -16.745964 1.038370 -11.115827 32.399607 6.689514 -29.233855 -30.941137 -4.447200 -12.732800 38.376400 2.593047 1.722710 7.611597 3.451901 2.544798 2.909940 -4.340184 1.231155 -12.417694 -10.254347 -5.790666 -10.021300 13.002506 -8.339737 1.588632 2.739300 -4.373600 1.183200 -1.958753 -11.253640 1.611732 -88.473564 8.632544 10.058486 24.323961 -24.482238 -6.290001 1.516281 1.038514 9.884243 9.285837 -31.028803 -4.311500 -7.125000 0.000000 0.000000 -13.399400 -1.950200 14.237500 0.495121 10.094226 2.423430 86.878427 -9.609756 18.823596 -17.709055 19.993875 -4.755902 1.270582 0.079277 31.468182 5.121432 -56.443266 -3.439300 7.125000 0.000000 0.000000 86.694700 -70.777800 -66.133700 
10.310816 18.084949 -45.671523 -0.103008 6.820189 5.569164 -0.622568 1.414180 0.975435 -15.035810 -13.321474 -13.646925 -1.784994 9.371303 25.898807 -0.610566 5.151228 1.527902 1.829100 -8.500700 -24.245600 -2.949562 -1.918213 0.223584 25.588476 1.027344 -16.822741 1.043001 -11.133593 32.461912 6.511716 -28.970732 -31.288567 -4.505100 -12.803800 38.638500 2.699600 1.737986 7.477183 3.562140 2.566400 3.050646 -4.378004 1.240614 -12.291768 -10.478983 -5.871130 -9.898113 13.199296 -8.453080 1.493552 2.846400 -4.436600 1.169500 -1.945063 -11.277091 1.604454 -88.408468 8.689035 11.334239 24.504918 -24.603535 -6.341135 1.402887 1.075407 9.976320 11.364116 -29.989371 -5.360500 -7.125000 0.000000 0.000000 -12.107500 -1.259300 12.654200 0.468946 10.077994 2.419574 86.798407 -9.472752 20.037118 -18.204504 20.620856 -4.944460 1.245715 0.126461 30.201270 5.904568 -56.762456 -4.140700 7.125000 0.000000 0.000000 87.911600 -70.535900 -67.105000 
10.340896 18.089903 -45.687329 -0.167895 7.299948 5.771807 -0.661980 1.375252 0.888658 -14.987257 -13.645130 -13.698065 -1.830135 9.325774 25.710873 -0.571616 5.070978 1.609969 1.828100 -8.498500 -24.238700 -2.970230 -1.872846 0.164033 25.632109 1.016878 -16.986953 1.064842 -11.148472 32.477786 6.316473 -28.678042 -31.648593 -4.411300 -12.688500 38.213200 3.332513 1.597844 8.074825 3.028256 2.501963 2.207240 -4.789806 1.121267 -12.796934 -10.358648 -5.977284 -9.655811 13.364125 -8.625534 1.889074 2.882200 -4.499800 1.257200 -1.866356 -11.184894 1.666622 -88.018079 9.694141 12.819046 24.884315 -25.031473 -6.540634 1.507462 0.950703 9.628313 7.875104 -29.766851 -3.402400 -7.125000 0.000000 0.000000 -14.127600 -0.437000 14.687300 0.516292 10.031736 2.450941 87.304496 -9.913087 21.257142 -18.872717 21.457750 -5.193094 1.204630 0.185325 29.074598 7.055989 -57.136063 -5.182500 7.125000 0.000000 0.000000 89.381000 -70.167000 -68.201900 
10.367790 18.093560 -45.707028 -0.309584 7.931452 5.688169 -0.647499 1.387569 0.881714 -14.955378 -14.037367 -13.542104 -1.862091 9.258937 25.544075 -0.649114 5.236696 1.797342 1.977300 -8.818700 -25.229700 -2.916325 -1.886364 0.213420 25.690282 0.881986 -17.031093 1.070996 -11.154856 32.515771 6.129649 -28.380608 -31.952969 -4.041400 -12.215300 36.497900 2.992586 1.554768 7.673875 3.825204 2.378385 2.641977 -4.465957 1.113086 -12.473116 -10.755406 -6.101286 -9.593103 13.211774 -8.776871 1.780288 2.894000 -4.585400 1.244000 -1.925260 -11.223092 1.621431 -88.428497 9.484680 13.790423 24.922391 -25.080794 -6.613966 1.562517 0.929088 9.274557 6.406412 -30.470202 -2.655200 -7.125000 0.000000 0.000000 -15.009300 -0.913000 15.795200 0.439140 10.045053 2.452948 86.699017 -9.535704 22.397388 -19.449051 22.164589 -5.405848 1.198809 0.209866 27.529520 6.369346 -56.736855 -4.573900 7.125000 0.000000 0.000000 88.015200 -70.363600 -67.003700 
10.406362 18.096508 -45.715757 -0.367087 8.166314 5.519606 -0.690264 1.437936 0.901474 -15.033750 -14.357785 -13.221406 -1.896841 9.202685 25.397801 -0.822664 5.635464 1.772969 2.096100 -9.063500 -25.994300 -2.928069 -1.907997 0.218471 25.663099 0.908531 -16.873715 1.051951 -11.157777 32.582365 6.011059 -28.090233 -31.952348 -3.607500 -11.618900 34.396700 3.469355 1.542611 7.830342 3.502771 2.427497 2.629892 -4.770810 1.091545 -12.553991 -10.711515 -6.211130 -9.394746 13.383181 -8.944009 1.879582 2.946700 -4.663900 1.266300 -1.881253 -11.217626 1.639104 -88.118591 9.717985 15.190815 24.893287 -25.049452 -6.629969 1.634371 0.874149 8.836652 4.212988 -30.560169 -1.450900 -7.125000 0.000000 0.000000 -16.272500 -0.692800 17.172500 0.458042 10.029677 2.430685 86.984323 -9.387683 23.184491 -19.914881 22.716079 -5.547551 1.208216 0.236665 25.930659 4.421390 -55.712697 -2.875800 7.125000 0.000000 0.000000 84.332500 -70.908700 -63.870900 
10.433021 18.105473 -45.725075 -0.347398 8.564207 5.618195 -0.712012 1.431723 0.873923 -15.111954 -14.722778 -13.119638 -1.937743 9.145535 25.225671 -0.907601 5.825847 1.756061 2.204800 -9.280200 -26.675700 -2.924222 -1.901881 0.217194 25.599859 1.158656 -16.913662 1.025555 -11.193632 32.641873 5.957579 -27.699186 -31.480982 -3.359800 -11.255900 33.148000 3.324479 1.587629 7.549847 3.620982 2.449743 2.675069 -4.661436 1.121962 -12.376618 -10.747648 -6.301295 -9.125716 13.477358 -9.086962 1.675443 2.998700 -4.749700 1.187000 -1.885365 -11.240724 1.637778 -88.017796 9.770050 16.852772 25.016121 -25.124421 -6.675735 1.624754 0.835886 8.620898 3.685108 -29.720268 -1.142100 -7.125000 0.000000 0.000000 -16.551600 0.211800 17.226100 0.439762 10.027671 2.419411 86.981339 -9.140760 23.958940 -20.407962 23.305279 -5.719489 1.210000 0.269215 23.953675 2.778395 -54.893794 -1.477500 7.125000 0.000000 0.000000 81.241000 -71.346300 -61.300100 
10.457202 18.111961 -45.735692 -0.312763 8.758333 5.724933 -0.718626 1.420801 0.845606 -15.233509 -15.009438 -13.032142 -1.975981 9.093700 25.073257 -1.010599 6.057495 1.646990 2.325600 -9.513700 -27.415900 -2.918934 -1.897214 0.205144 25.499183 1.436301 -17.010853 0.961381 -11.258127 32.747769 5.985037 -27.188286 -30.390200 -3.020200 -10.727700 31.366900 3.085055 1.583345 7.322203 3.925232 2.401791 2.617079 -4.477938 1.126288 -12.251611 -11.062135 -6.265355 -8.708461 13.530061 -9.081776 1.462072 3.087500 -4.766200 1.079300 -1.905037 -11.263754 1.629595 -88.217063 9.980440 17.823776 25.164493 -25.245159 -6.746099 1.588751 0.836805 8.383896 4.037879 -29.306625 -1.322400 -7.125000 0.000000 0.000000 -16.332800 0.581500 16.868700 0.413967 10.003194 2.419530 86.701905 -8.949139 25.186422 -20.914678 23.905772 -5.911142 1.206860 0.302273 21.745458 1.138545 -54.184314 -0.111300 7.125000 0.000000 0.000000 78.360900 -71.778800 -58.997900 
10.487989 18.111371 -45.731445 -0.294293 8.465626 5.655823 -0.743541 1.455497 0.872690 -15.398949 -15.065983 -12.801957 -2.005358 9.053418 24.972134 -1.196303 6.488024 1.385105 2.400900 -9.655500 -27.868100 -2.947337 -1.911210 0.182752 25.398223 1.919777 -16.843357 0.878989 -11.323719 32.911641 6.040140 -26.782434 -29.278907 -2.634500 -10.078500 29.231300 3.258292 1.673141 7.370204 3.707573 2.544393 2.505838 -4.618082 1.175415 -12.291425 -10.992673 -6.326116 -8.485311 13.456420 -9.186567 1.524184 3.055500 -4.817900 1.063600 -1.871038 -11.247166 1.652325 -88.042301 10.414994 18.741357 25.247497 -25.336946 -6.823812 1.587092 0.856345 8.016518 3.958455 -29.841407 -1.302000 -7.125000 0.000000 0.000000 -16.385200 0.066800 17.080100 0.418910 9.986609 2.410152 86.897127 -8.781010 25.735815 -21.500741 24.603648 -6.144218 1.174306 0.350165 20.989043 2.970250 -53.732475 -1.634800 7.125000 0.000000 0.000000 78.026600 -71.044600 -57.780800 
10.512171 18.109130 -45.738641 -0.261104 8.473729 5.580790 -0.765889 1.478402 0.883294 -15.519212 -15.243669 -12.622334 -2.023277 9.025218 24.910724 -1.183988 6.453762 1.259550 2.150000 -9.171700 -26.333900 -2.981108 -1.919908 0.159130 25.336593 2.386293 -16.693743 0.791812 -11.399082 33.103709 6.162991 -26.624538 -28.250978 -2.355200 -9.569800 27.594600 3.500074 1.606600 7.550573 3.444409 2.493421 2.382620 -4.771056 1.127097 -12.418131 -11.049114 -6.351783 -8.337354 13.544520 -9.238279 1.621846 3.097500 -4.839800 1.081900 -1.834134 -11.237236 1.675342 -87.885393 10.735982 19.366073 25.284910 -25.385325 -6.870967 1.590731 0.868916 7.916974 3.889256 -30.272844 -1.280900 -7.125000 0.000000 0.000000 -16.432000 -0.350100 17.255900 0.442476 9.970302 2.392024 87.083245 -8.575741 26.921978 -21.981890 25.139787 -6.296845 1.184627 0.361378 18.765201 -0.504508 -52.117417 1.198000 7.125000 0.000000 0.000000 71.367500 -71.816700 -52.428900 
10.533167 18.105591 -45.751380 -0.209634 8.701608 5.460961 -0.789059 1.504714 0.894400 -15.639676 -15.553927 -12.424445 -2.028599 9.013103 24.901523 -1.110567 6.271158 1.169494 1.880500 -8.612700 -24.591100 -3.013356 -1.937097 0.155633 25.282010 2.719586 -16.544967 0.695682 -11.471023 33.317461 6.244518 -26.390407 -27.242049 -1.960300 -8.782900 25.118500 3.559312 1.682147 7.485150 3.206124 2.589783 2.526364 -4.835177 1.174619 -12.343890 -10.804278 -6.498891 -7.978045 13.550160 -9.466946 1.430700 3.078400 -4.968700 0.977500 -1.808241 -11.249453 1.683434 -87.551502 10.705542 20.401257 25.201830 -25.284357 -6.844797 1.601247 0.870009 7.947024 3.700455 -30.396850 -1.181700 -7.125000 0.000000 0.000000 -16.543500 -0.452200 17.413600 0.443087 9.971744 2.364117 87.323124 -8.232644 27.461632 -22.555176 25.792084 -6.517918 1.175280 0.381723 16.903229 -2.530825 -51.091269 2.779600 7.125000 0.000000 0.000000 67.053500 -72.176900 -48.940700 
